# xmcd CD database file
#
# Track frame offsets:
#	150
#	17599
#	35959
#	50886
#	70420
#	85912
#	103974
#	121850
#	149209
#	166713
#	184973
#	201479
#	222002
#	247897
#
# Disc length: 3612 seconds
#
# Revision: 0
# Processed by: cddbd v1.5.2PL0 Copyright (c) Steve Scherf et al.
# Submitted via: CDex 1.51
#
DISCID=d90e1a0e
DTITLE=Jeremy Spencer - Bend In The Road
DYEAR=2012
DGENRE=Blues
TTITLE0=Homesick
TTITLE1=Cry For Me Baby
TTITLE2=Whispering Fields
TTITLE3=Walked A Mile
TTITLE4=Earthquake
TTITLE5=Aphrodite
TTITLE6=Secret Sorrow
TTITLE7=Stranger Blues
TTITLE8=Homework
TTITLE9=Desired Haven
TTITLE10=Come To Me
TTITLE11=Merciful Sea
TTITLE12=Refugees
TTITLE13=Bend In The Road
EXTD=YEAR: 2012
EXTT0=
EXTT1=
EXTT2=
EXTT3=
EXTT4=
EXTT5=
EXTT6=
EXTT7=
EXTT8=
EXTT9=
EXTT10=
EXTT11=
EXTT12=
EXTT13=
PLAYORDER=
